<?xml version="1.0" encoding="UTF-8" standalone="no"?><!DOCTYPE svg PUBLIC "-//W3C//DTD SVG 1.1//EN" "http://www.w3.org/Graphics/SVG/1.1/DTD/svg11.dtd"><svg width="100%" height="100%" viewBox="0 0 366 211" version="1.1" xmlns="http://www.w3.org/2000/svg" xmlns:xlink="http://www.w3.org/1999/xlink" xml:space="preserve" xmlns:serif="http://www.serif.com/" style="fill-rule:evenodd;clip-rule:evenodd;stroke-linejoin:round;stroke-miterlimit:2;"><path d="M284.2,55.65l25.043,0.424c0,0 -10.313,21.358 -9.338,28.65c0.538,4.021 27.165,0 27.165,0l-59.635,70.883l16.766,-47.795l-16.766,-1.698l16.766,-50.465Zm-111.088,146.392c-0.839,0.52 -1.693,1.022 -2.562,1.508c-7.7,4.3 -16.55,6.45 -26.55,6.45l-144,0l29.7,-42l99,0c7.6,0 13.15,-2.2 16.65,-6.6c3.5,-4.4 5.65,-9.4 6.45,-15c1,-7 -1.5,-12.05 -7.5,-15.15c-6,-3.1 -15,-4.65 -27,-4.65l-27.9,0c-22.2,0 -38.4,-4.45 -48.6,-13.35c-10.2,-8.9 -15.3,-21.55 -15.3,-37.95c0,-8.6 1.3,-17.35 3.9,-26.25c2.6,-8.9 6.4,-17 11.4,-24.3c5,-7.3 11.2,-13.25 18.6,-17.85c7.4,-4.6 15.9,-6.9 25.5,-6.9l127.462,0c-4.583,2.347 -8.79,5.187 -12.621,8.521c-5.779,5.03 -10.541,11.077 -14.287,18.14c-2.508,4.729 -4.464,9.842 -5.868,15.339l-70.985,0c-3.8,0 -7.35,0.6 -10.65,1.8c-3.3,1.2 -6.2,2.85 -8.7,4.95c-2.5,2.1 -4.55,4.5 -6.15,7.2c-1.6,2.7 -2.6,5.45 -3,8.25c-1,7.2 1.5,12.4 7.5,15.6c6,3.2 15,4.8 27,4.8l8.7,0c15.4,0 28.4,1.15 39,3.45c3.536,0.767 6.844,1.646 9.924,2.636l-9.726,68.895c-1.284,8.562 -1.017,16.428 0.803,23.598c1.819,7.17 4.923,13.271 9.311,18.3c0.165,0.189 0.332,0.377 0.501,0.563Zm43.994,8.587c-8,0 -15.15,-1.3 -21.45,-3.9c-6.3,-2.6 -11.5,-6.25 -15.6,-10.95c-4.1,-4.7 -7,-10.4 -8.7,-17.1c-1.7,-6.7 -1.95,-14.05 -0.75,-22.05l14.4,-102c1.2,-8.2 3.55,-15.6 7.05,-22.2c3.5,-6.6 7.95,-12.25 13.35,-16.95c5.4,-4.7 11.6,-8.35 18.6,-10.95c7,-2.6 14.5,-3.9 22.5,-3.9l118.5,0l-29.7,42l-65.7,0c-8.8,0 -16.25,2.95 -22.35,8.85c-6.1,5.9 -9.85,13.75 -11.25,23.55l-8.4,61.2c-1.4,9.8 0.05,17.65 4.35,23.55c4.3,5.9 10.85,8.85 19.65,8.85l70.2,0l29.7,42l-134.4,0Z" style="fill:#ef0;"/></svg>