<?xml version="1.0" encoding="UTF-8" standalone="no"?><!DOCTYPE svg PUBLIC "-//W3C//DTD SVG 1.1//EN" "http://www.w3.org/Graphics/SVG/1.1/DTD/svg11.dtd"><svg width="100%" height="100%" viewBox="0 0 238 69" version="1.1" xmlns="http://www.w3.org/2000/svg" xmlns:xlink="http://www.w3.org/1999/xlink" xml:space="preserve" xmlns:serif="http://www.serif.com/" style="fill-rule:evenodd;clip-rule:evenodd;stroke-linejoin:round;stroke-miterlimit:2;"><g><path d="M47.444,15.437c2.525,0 4.657,0.21 6.395,0.63c1.738,0.42 3.14,1.022 4.206,1.806c1.066,0.785 1.828,1.761 2.288,2.929c0.459,1.168 0.689,2.5 0.689,3.996c0,1.642 -0.221,3.275 -0.664,4.899c-0.443,1.624 -1.099,3.075 -1.968,4.352c-0.869,1.277 -1.935,2.308 -3.198,3.093c-1.263,0.785 -2.714,1.177 -4.354,1.177l-23.614,0l4.87,-7.664l16.234,0c1.246,0 2.156,-0.401 2.73,-1.204c0.574,-0.803 0.927,-1.715 1.058,-2.737c0.164,-1.277 -0.246,-2.199 -1.23,-2.764c-0.984,-0.566 -2.46,-0.848 -4.428,-0.848l-4.575,0c-3.64,0 -6.297,-0.812 -7.97,-2.436c-1.673,-1.624 -2.509,-3.932 -2.509,-6.925c0,-1.569 0.213,-3.166 0.64,-4.79c0.426,-1.624 1.049,-3.102 1.869,-4.434c0.82,-1.332 1.837,-2.418 3.05,-3.257c1.213,-0.839 2.607,-1.259 4.182,-1.259l22.236,0l-4.87,7.664l-13.48,0c-0.623,0 -1.205,0.109 -1.746,0.328c-0.541,0.219 -1.017,0.52 -1.427,0.903c-0.41,0.383 -0.746,0.821 -1.009,1.314c-0.262,0.493 -0.426,0.994 -0.492,1.505c-0.164,1.314 0.246,2.263 1.23,2.846c0.984,0.584 2.46,0.876 4.428,0.876l1.427,0Zm18.399,-15.437l31.977,0l-4.87,7.664l-7.674,0l-3.837,30.655l-8.855,0l3.837,-30.655l-5.707,0l-4.87,-7.664Zm50.77,19.159l-1.673,-6.897l-6.986,13.357l15.841,-8.772c0.559,-0.31 1.258,-0.194 1.687,0.279c0.43,0.473 0.477,1.18 0.115,1.706l-6.624,9.633l-17.612,9.853l-9.347,0l19.973,-38.318l9.347,0l3.64,14.67l-8.363,4.489Zm4.723,19.159l-2.066,-7.609l7.084,-10.182l4.329,17.791l-9.347,0Zm13.234,-38.318l31.977,0l-4.87,7.664l-7.674,0l-3.837,30.655l-8.855,0l3.837,-30.655l-5.707,0l-4.87,-7.664Zm33.158,10.51l1.328,-10.51l8.855,0l-0.295,2.573l-9.888,7.937Zm-0.295,2.409l9.839,-7.937l-4.182,33.337l-8.855,0l3.198,-25.4Zm18.694,25.4c-1.312,0 -2.484,-0.237 -3.517,-0.712c-1.033,-0.474 -1.886,-1.14 -2.558,-1.998c-0.672,-0.858 -1.148,-1.898 -1.427,-3.12c-0.279,-1.223 -0.32,-2.564 -0.123,-4.023l2.361,-18.612c0.197,-1.496 0.582,-2.846 1.156,-4.051c0.574,-1.204 1.304,-2.235 2.189,-3.093c0.886,-0.858 1.902,-1.524 3.05,-1.998c1.148,-0.474 2.378,-0.712 3.69,-0.712l19.432,0l-4.87,7.664l-10.774,0c-1.443,0 -2.665,0.538 -3.665,1.615c-1,1.077 -1.615,2.509 -1.845,4.297l-1.377,11.167c-0.23,1.788 0.008,3.221 0.713,4.297c0.705,1.077 1.779,1.615 3.222,1.615l11.512,0l4.87,7.664l-22.039,0Z" style="fill:#fff900;"/><path d="M5.001,68.454c-0.847,0 -1.604,-0.153 -2.271,-0.459c-0.667,-0.306 -1.217,-0.736 -1.651,-1.29c-0.434,-0.554 -0.741,-1.225 -0.921,-2.014c-0.18,-0.789 -0.206,-1.655 -0.079,-2.597l1.524,-12.015c0.127,-0.966 0.376,-1.838 0.746,-2.615c0.371,-0.777 0.842,-1.443 1.413,-1.997c0.572,-0.554 1.228,-0.984 1.969,-1.29c0.741,-0.306 1.535,-0.459 2.382,-0.459l12.545,0l-3.144,4.947l-6.955,0c-0.932,0 -1.72,0.347 -2.366,1.042c-0.646,0.695 -1.043,1.62 -1.191,2.774l-0.889,7.209c-0.148,1.154 0.005,2.079 0.461,2.774c0.455,0.695 1.149,1.042 2.08,1.042l7.432,0l3.144,4.947l-14.228,0Zm16.959,-18.376c0.127,-0.966 0.376,-1.838 0.746,-2.615c0.371,-0.777 0.842,-1.443 1.413,-1.997c0.572,-0.554 1.228,-0.984 1.969,-1.29c0.741,-0.306 1.535,-0.459 2.382,-0.459l11.338,0c0.868,0 1.63,0.153 2.287,0.459c0.656,0.306 1.202,0.736 1.636,1.29c0.434,0.554 0.741,1.219 0.921,1.997c0.18,0.777 0.206,1.649 0.079,2.615l-1.524,12.015c-0.127,0.942 -0.376,1.808 -0.746,2.597c-0.371,0.789 -0.842,1.461 -1.413,2.014c-0.572,0.554 -1.223,0.984 -1.953,1.29c-0.73,0.306 -1.53,0.459 -2.398,0.459l-11.338,0c-0.847,0 -1.604,-0.153 -2.271,-0.459c-0.667,-0.306 -1.217,-0.736 -1.651,-1.29c-0.434,-0.554 -0.741,-1.225 -0.921,-2.014c-0.18,-0.789 -0.206,-1.655 -0.079,-2.597l1.524,-12.015Zm4.51,9.612c-0.148,1.154 0.005,2.079 0.461,2.774c0.455,0.695 1.149,1.042 2.08,1.042l5.208,0c0.932,0 1.726,-0.347 2.382,-1.042c0.656,-0.695 1.059,-1.62 1.207,-2.774l0.889,-7.209c0.148,-1.154 -0.011,-2.079 -0.476,-2.774c-0.466,-0.695 -1.164,-1.042 -2.096,-1.042l-5.208,0c-0.932,0 -1.72,0.347 -2.366,1.042c-0.646,0.695 -1.043,1.62 -1.191,2.774l-0.889,7.209Zm21.533,-15.973l5.717,0l6.352,11.909l9.337,-11.909l5.717,0l-3.112,24.737l-5.717,0l2.064,-16.397l-9.337,11.909l-6.352,-11.909l-2.064,16.397l-5.717,0l3.112,-24.737Zm30.33,0l13.307,0c2.371,0 4.081,0.748 5.129,2.244c1.048,1.496 1.403,3.587 1.064,6.273c-0.191,1.414 -0.561,2.68 -1.112,3.799c-0.55,1.119 -1.244,2.067 -2.08,2.845c-0.836,0.777 -1.794,1.372 -2.874,1.785c-1.08,0.412 -2.244,0.618 -3.493,0.618l-6.447,0l-0.889,7.174l-5.717,0l3.112,-24.737Zm4.129,12.616l6.352,0c0.508,0 0.953,-0.112 1.334,-0.336c0.381,-0.224 0.709,-0.518 0.985,-0.883c0.275,-0.365 0.492,-0.783 0.651,-1.255c0.159,-0.471 0.27,-0.966 0.333,-1.484c0.042,-0.401 0.058,-0.813 0.048,-1.237c-0.011,-0.424 -0.085,-0.825 -0.222,-1.202c-0.138,-0.377 -0.349,-0.683 -0.635,-0.919c-0.286,-0.236 -0.672,-0.353 -1.159,-0.353l-6.733,0l-0.953,7.668Zm17.69,-6.255c0.127,-0.966 0.376,-1.838 0.746,-2.615c0.371,-0.777 0.842,-1.443 1.413,-1.997c0.572,-0.554 1.228,-0.984 1.969,-1.29c0.741,-0.306 1.535,-0.459 2.382,-0.459l11.338,0c0.868,0 1.63,0.153 2.287,0.459c0.656,0.306 1.202,0.736 1.636,1.29c0.434,0.554 0.741,1.219 0.921,1.997c0.18,0.777 0.206,1.649 0.079,2.615l-1.524,12.015c-0.127,0.942 -0.376,1.808 -0.746,2.597c-0.371,0.789 -0.842,1.461 -1.413,2.014c-0.572,0.554 -1.223,0.984 -1.953,1.29c-0.73,0.306 -1.53,0.459 -2.398,0.459l-11.338,0c-0.847,0 -1.604,-0.153 -2.271,-0.459c-0.667,-0.306 -1.217,-0.736 -1.651,-1.29c-0.434,-0.554 -0.741,-1.225 -0.921,-2.014c-0.18,-0.789 -0.206,-1.655 -0.079,-2.597l1.524,-12.015Zm4.51,9.612c-0.148,1.154 0.005,2.079 0.461,2.774c0.455,0.695 1.149,1.042 2.08,1.042l5.208,0c0.932,0 1.726,-0.347 2.382,-1.042c0.656,-0.695 1.059,-1.62 1.207,-2.774l0.889,-7.209c0.148,-1.154 -0.011,-2.079 -0.476,-2.774c-0.466,-0.695 -1.164,-1.042 -2.096,-1.042l-5.208,0c-0.932,0 -1.72,0.347 -2.366,1.042c-0.646,0.695 -1.043,1.62 -1.191,2.774l-0.889,7.209Zm21.533,-15.973l5.717,0l8.861,16.432l2.064,-16.432l5.717,0l-3.112,24.737l-5.717,0l-8.861,-16.432l-2.064,16.432l-5.717,0l3.112,-24.737Zm25.566,0l17.467,0l-0.603,4.947l-11.783,0l-0.603,4.947l10.798,0l-5.812,4.947l-5.621,0l-0.603,4.947l12.037,0l-0.603,4.947l-17.785,0l3.112,-24.737Zm20.04,0l5.717,0l8.861,16.432l2.064,-16.432l5.717,0l-3.112,24.737l-5.717,0l-8.861,-16.432l-2.064,16.432l-5.717,0l3.112,-24.737Zm23.978,0l20.643,0l-3.144,4.947l-4.954,0l-2.477,19.79l-5.717,0l2.477,-19.79l-3.684,0l-3.144,-4.947Zm31.537,9.966c1.63,0 3.007,0.135 4.129,0.406c1.122,0.271 2.027,0.66 2.715,1.166c0.688,0.507 1.18,1.137 1.477,1.891c0.296,0.754 0.445,1.614 0.445,2.58c0,1.06 -0.143,2.114 -0.429,3.163c-0.286,1.048 -0.709,1.985 -1.27,2.809c-0.561,0.825 -1.249,1.49 -2.064,1.997c-0.815,0.507 -1.752,0.76 -2.811,0.76l-15.244,0l3.144,-4.947l10.48,0c0.805,0 1.392,-0.259 1.763,-0.777c0.371,-0.518 0.598,-1.107 0.683,-1.767c0.106,-0.825 -0.159,-1.419 -0.794,-1.785c-0.635,-0.365 -1.588,-0.548 -2.858,-0.548l-2.954,0c-2.35,0 -4.065,-0.524 -5.145,-1.573c-1.08,-1.048 -1.62,-2.538 -1.62,-4.47c0,-1.013 0.138,-2.044 0.413,-3.092c0.275,-1.048 0.678,-2.003 1.207,-2.862c0.529,-0.86 1.186,-1.561 1.969,-2.103c0.783,-0.542 1.683,-0.813 2.7,-0.813l14.355,0l-3.144,4.947l-8.702,0c-0.402,0 -0.778,0.071 -1.127,0.212c-0.349,0.141 -0.656,0.336 -0.921,0.583c-0.265,0.247 -0.482,0.53 -0.651,0.848c-0.169,0.318 -0.275,0.642 -0.318,0.972c-0.106,0.848 0.159,1.461 0.794,1.838c0.635,0.377 1.588,0.565 2.858,0.565l0.921,0Z" style="fill:#fff900;"/><path d="M215.434,4.091l7.55,0.128c0,0 -3.109,6.439 -2.815,8.638c0.162,1.212 8.19,0 8.19,0l-17.979,21.37l5.055,-14.41l-5.055,-0.512l5.055,-15.215Z" style="fill:#fff900;"/><path d="M14.3,4.091l7.55,0.128c0,0 -3.109,6.439 -2.815,8.638c0.162,1.212 8.19,0 8.19,0l-17.979,21.37l5.055,-14.41l-5.055,-0.512l5.055,-15.215Z" style="fill:#fff900;"/></g></svg>