<?xml version="1.0" encoding="UTF-8" standalone="no"?><!DOCTYPE svg PUBLIC "-//W3C//DTD SVG 1.1//EN" "http://www.w3.org/Graphics/SVG/1.1/DTD/svg11.dtd"><svg width="100%" height="100%" viewBox="0 0 842 572" version="1.1" xmlns="http://www.w3.org/2000/svg" xmlns:xlink="http://www.w3.org/1999/xlink" xml:space="preserve" xmlns:serif="http://www.serif.com/" style="fill-rule:evenodd;clip-rule:evenodd;stroke-linejoin:round;stroke-miterlimit:2;"><g id="Full"><path d="M654.909,128.239l57.708,0.978c0,0 -23.765,49.217 -21.518,66.022c1.239,9.267 62.599,0 62.599,0l-137.424,163.343l38.635,-110.14l-38.635,-3.912l38.635,-116.291Zm-255.99,337.346c-1.933,1.198 -3.901,2.356 -5.904,3.475c-17.744,9.909 -38.138,14.863 -61.182,14.863l-331.833,0l68.441,-96.785l228.135,0c17.513,0 30.303,-5.07 38.368,-15.209c8.065,-10.139 13.02,-21.661 14.863,-34.566c2.304,-16.131 -3.457,-27.768 -17.283,-34.912c-13.826,-7.144 -34.566,-10.715 -62.219,-10.715l-64.293,0c-51.158,0 -88.489,-10.255 -111.994,-30.764c-23.505,-20.509 -35.257,-49.66 -35.257,-87.452c0,-19.818 2.996,-39.981 8.987,-60.49c5.991,-20.509 14.748,-39.175 26.27,-55.997c11.522,-16.822 25.809,-30.533 42.862,-41.134c17.053,-10.6 36.64,-15.9 58.762,-15.9l293.723,0c-10.561,5.408 -20.256,11.953 -29.084,19.637c-13.317,11.591 -24.292,25.525 -32.923,41.802c-5.779,10.898 -10.287,22.68 -13.523,35.347l-163.578,0c-8.757,0 -16.937,1.383 -24.542,4.148c-7.605,2.765 -14.287,6.568 -20.048,11.407c-5.761,4.839 -10.485,10.37 -14.172,16.592c-3.687,6.222 -5.991,12.559 -6.913,19.011c-2.304,16.592 3.457,28.575 17.283,35.949c13.826,7.374 34.566,11.061 62.219,11.061l20.048,0c35.488,0 65.445,2.65 89.872,7.95c8.149,1.768 15.772,3.793 22.869,6.074l-22.413,158.761c-2.959,19.729 -2.343,37.856 1.85,54.379c4.192,16.523 11.344,30.581 21.456,42.172c0.381,0.436 0.765,0.869 1.154,1.298Zm101.38,19.787c-18.435,0 -34.912,-2.996 -49.429,-8.987c-14.518,-5.991 -26.501,-14.402 -35.949,-25.233c-9.448,-10.831 -16.131,-23.966 -20.048,-39.405c-3.917,-15.439 -4.494,-32.377 -1.728,-50.812l33.183,-235.049c2.765,-18.896 8.181,-35.949 16.246,-51.158c8.065,-15.209 18.32,-28.229 30.764,-39.06c12.444,-10.831 26.731,-19.242 42.862,-25.233c16.131,-5.991 33.414,-8.987 51.849,-8.987l273.071,0l-68.441,96.785l-151.399,0c-20.279,0 -37.446,6.798 -51.503,20.394c-14.057,13.596 -22.698,31.685 -25.924,54.269l-19.357,141.029c-3.226,22.583 0.115,40.673 10.024,54.269c9.909,13.596 25.003,20.394 45.281,20.394l161.769,0l68.441,96.785l-309.711,0Z" style="fill:#fff900;"/><path d="M30.079,537.024c3.757,0 6.928,0.312 9.514,0.936c2.586,0.624 4.672,1.52 6.257,2.687c1.586,1.167 2.72,2.619 3.403,4.357c0.683,1.737 1.025,3.719 1.025,5.945c0,2.443 -0.329,4.872 -0.988,7.288c-0.659,2.416 -1.634,4.574 -2.927,6.474c-1.293,1.9 -2.879,3.434 -4.757,4.601c-1.878,1.167 -4.037,1.751 -6.477,1.751l-35.129,0l7.245,-11.401l24.151,0c1.854,0 3.208,-0.597 4.062,-1.792c0.854,-1.194 1.378,-2.552 1.573,-4.072c0.244,-1.9 -0.366,-3.271 -1.83,-4.112c-1.464,-0.841 -3.659,-1.262 -6.587,-1.262l-6.806,0c-5.416,0 -9.368,-1.208 -11.856,-3.624c-2.488,-2.416 -3.732,-5.85 -3.732,-10.301c0,-2.334 0.317,-4.71 0.951,-7.126c0.634,-2.416 1.561,-4.615 2.781,-6.596c1.22,-1.982 2.732,-3.597 4.537,-4.845c1.805,-1.249 3.879,-1.873 6.221,-1.873l33.08,0l-7.245,11.401l-20.053,0c-0.927,0 -1.793,0.163 -2.598,0.489c-0.805,0.326 -1.512,0.774 -2.122,1.344c-0.61,0.57 -1.11,1.222 -1.5,1.954c-0.39,0.733 -0.634,1.479 -0.732,2.239c-0.244,1.954 0.366,3.366 1.83,4.235c1.464,0.869 3.659,1.303 6.587,1.303l2.122,0Zm27.371,-22.965l47.571,0l-7.245,11.401l-11.417,0l-5.708,45.603l-13.173,0l5.708,-45.603l-8.49,0l-7.245,-11.401Zm75.527,28.502l-2.488,-10.261l-10.392,19.87l23.566,-13.05c0.832,-0.461 1.871,-0.289 2.51,0.415c0.639,0.704 0.71,1.755 0.171,2.539l-9.854,14.33l-26.2,14.658l-13.905,0l29.713,-57.004l13.905,0l5.416,21.824l-12.442,6.678Zm7.026,28.502l-3.074,-11.319l10.539,-15.147l6.44,26.466l-13.905,0Zm19.687,-57.004l47.571,0l-7.245,11.401l-11.417,0l-5.708,45.603l-13.173,0l5.708,-45.603l-8.49,0l-7.245,-11.401Zm49.327,15.635l1.976,-15.635l13.173,0l-0.439,3.827l-14.71,11.808Zm-0.439,3.583l14.637,-11.808l-6.221,49.594l-13.173,0l4.757,-37.786Zm27.81,37.786c-1.952,0 -3.696,-0.353 -5.233,-1.059c-1.537,-0.706 -2.805,-1.697 -3.806,-2.972c-1,-1.276 -1.708,-2.823 -2.122,-4.642c-0.415,-1.819 -0.476,-3.814 -0.183,-5.985l3.513,-27.688c0.293,-2.226 0.866,-4.235 1.72,-6.026c0.854,-1.792 1.939,-3.325 3.257,-4.601c1.317,-1.276 2.83,-2.267 4.537,-2.972c1.708,-0.706 3.537,-1.059 5.489,-1.059l28.908,0l-7.245,11.401l-16.028,0c-2.147,0 -3.964,0.801 -5.452,2.402c-1.488,1.602 -2.403,3.732 -2.744,6.393l-2.049,16.613c-0.342,2.66 0.012,4.791 1.061,6.393c1.049,1.602 2.647,2.402 4.794,2.402l17.125,0l7.245,11.401l-32.787,0Z" style="fill:#fff900;"/><path d="M305.11,571.063c-1.952,0 -3.696,-0.353 -5.233,-1.059c-1.537,-0.706 -2.805,-1.697 -3.806,-2.972c-1,-1.276 -1.708,-2.823 -2.122,-4.642c-0.415,-1.819 -0.476,-3.814 -0.183,-5.985l3.513,-27.688c0.293,-2.226 0.866,-4.235 1.72,-6.026c0.854,-1.792 1.939,-3.325 3.257,-4.601c1.317,-1.276 2.83,-2.267 4.537,-2.972c1.708,-0.706 3.537,-1.059 5.489,-1.059l28.908,0l-7.245,11.401l-16.028,0c-2.147,0 -3.964,0.801 -5.452,2.402c-1.488,1.602 -2.403,3.732 -2.744,6.393l-2.049,16.613c-0.342,2.66 0.012,4.791 1.061,6.393c1.049,1.602 2.647,2.402 4.794,2.402l17.125,0l7.245,11.401l-32.787,0Zm39.081,-42.346c0.293,-2.226 0.866,-4.235 1.72,-6.026c0.854,-1.792 1.939,-3.325 3.257,-4.601c1.317,-1.276 2.83,-2.267 4.537,-2.972c1.708,-0.706 3.537,-1.059 5.489,-1.059l26.127,0c2,0 3.757,0.353 5.269,1.059c1.512,0.706 2.769,1.697 3.769,2.972c1,1.276 1.708,2.809 2.122,4.601c0.415,1.792 0.476,3.8 0.183,6.026l-3.513,27.688c-0.293,2.172 -0.866,4.167 -1.72,5.985c-0.854,1.819 -1.939,3.366 -3.257,4.642c-1.317,1.276 -2.818,2.267 -4.501,2.972c-1.683,0.706 -3.525,1.059 -5.525,1.059l-26.127,0c-1.952,0 -3.696,-0.353 -5.233,-1.059c-1.537,-0.706 -2.805,-1.697 -3.806,-2.972c-1,-1.276 -1.708,-2.823 -2.122,-4.642c-0.415,-1.819 -0.476,-3.814 -0.183,-5.985l3.513,-27.688Zm10.392,22.15c-0.342,2.66 0.012,4.791 1.061,6.393c1.049,1.602 2.647,2.402 4.794,2.402l12.002,0c2.147,0 3.976,-0.801 5.489,-2.402c1.512,-1.602 2.44,-3.732 2.781,-6.393l2.049,-16.613c0.342,-2.66 -0.024,-4.791 -1.098,-6.393c-1.073,-1.602 -2.683,-2.402 -4.83,-2.402l-12.002,0c-2.147,0 -3.964,0.801 -5.452,2.402c-1.488,1.602 -2.403,3.732 -2.744,6.393l-2.049,16.613Zm49.62,-36.808l13.173,0l14.637,27.443l21.517,-27.443l13.173,0l-7.172,57.004l-13.173,0l4.757,-37.786l-21.517,27.443l-14.637,-27.443l-4.757,37.786l-13.173,0l7.172,-57.004Zm69.892,0l30.665,0c5.465,0 9.404,1.724 11.819,5.171c2.415,3.447 3.232,8.266 2.452,14.455c-0.439,3.257 -1.293,6.175 -2.561,8.754c-1.269,2.579 -2.866,4.764 -4.794,6.555c-1.927,1.792 -4.135,3.162 -6.623,4.112c-2.488,0.95 -5.172,1.425 -8.05,1.425l-14.857,0l-2.049,16.531l-13.173,0l7.172,-57.004Zm9.514,29.072l14.637,0c1.171,0 2.196,-0.258 3.074,-0.774c0.878,-0.516 1.634,-1.194 2.269,-2.036c0.634,-0.841 1.134,-1.805 1.5,-2.891c0.366,-1.086 0.622,-2.226 0.768,-3.42c0.098,-0.923 0.134,-1.873 0.11,-2.85c-0.024,-0.977 -0.195,-1.9 -0.512,-2.769c-0.317,-0.869 -0.805,-1.574 -1.464,-2.117c-0.659,-0.543 -1.549,-0.814 -2.671,-0.814l-15.515,0l-2.196,17.671Zm40.764,-14.414c0.293,-2.226 0.866,-4.235 1.72,-6.026c0.854,-1.792 1.939,-3.325 3.257,-4.601c1.317,-1.276 2.83,-2.267 4.537,-2.972c1.708,-0.706 3.537,-1.059 5.489,-1.059l26.127,0c2,0 3.757,0.353 5.269,1.059c1.512,0.706 2.769,1.697 3.769,2.972c1,1.276 1.708,2.809 2.122,4.601c0.415,1.792 0.476,3.8 0.183,6.026l-3.513,27.688c-0.293,2.172 -0.866,4.167 -1.72,5.985c-0.854,1.819 -1.939,3.366 -3.257,4.642c-1.317,1.276 -2.818,2.267 -4.501,2.972c-1.683,0.706 -3.525,1.059 -5.525,1.059l-26.127,0c-1.952,0 -3.696,-0.353 -5.233,-1.059c-1.537,-0.706 -2.805,-1.697 -3.806,-2.972c-1,-1.276 -1.708,-2.823 -2.122,-4.642c-0.415,-1.819 -0.476,-3.814 -0.183,-5.985l3.513,-27.688Zm10.392,22.15c-0.342,2.66 0.012,4.791 1.061,6.393c1.049,1.602 2.647,2.402 4.794,2.402l12.002,0c2.147,0 3.976,-0.801 5.489,-2.402c1.512,-1.602 2.44,-3.732 2.781,-6.393l2.049,-16.613c0.342,-2.66 -0.024,-4.791 -1.098,-6.393c-1.073,-1.602 -2.683,-2.402 -4.83,-2.402l-12.002,0c-2.147,0 -3.964,0.801 -5.452,2.402c-1.488,1.602 -2.403,3.732 -2.744,6.393l-2.049,16.613Zm49.62,-36.808l13.173,0l20.419,37.867l4.757,-37.867l13.173,0l-7.172,57.004l-13.173,0l-20.419,-37.867l-4.757,37.867l-13.173,0l7.172,-57.004Zm58.914,0l40.252,0l-1.391,11.401l-27.152,0l-1.391,11.401l24.883,0l-13.393,11.401l-12.954,0l-1.391,11.401l27.737,0l-1.391,11.401l-40.984,0l7.172,-57.004Zm46.18,0l13.173,0l20.419,37.867l4.757,-37.867l13.173,0l-7.172,57.004l-13.173,0l-20.419,-37.867l-4.757,37.867l-13.173,0l7.172,-57.004Zm55.255,0l47.571,0l-7.245,11.401l-11.417,0l-5.708,45.603l-13.173,0l5.708,-45.603l-8.49,0l-7.245,-11.401Zm72.673,22.965c3.757,0 6.928,0.312 9.514,0.936c2.586,0.624 4.672,1.52 6.257,2.687c1.586,1.167 2.72,2.619 3.403,4.357c0.683,1.737 1.025,3.719 1.025,5.945c0,2.443 -0.329,4.872 -0.988,7.288c-0.659,2.416 -1.634,4.574 -2.927,6.474c-1.293,1.9 -2.879,3.434 -4.757,4.601c-1.878,1.167 -4.037,1.751 -6.477,1.751l-35.129,0l7.245,-11.401l24.151,0c1.854,0 3.208,-0.597 4.062,-1.792c0.854,-1.194 1.378,-2.552 1.573,-4.072c0.244,-1.9 -0.366,-3.271 -1.83,-4.112c-1.464,-0.841 -3.659,-1.262 -6.587,-1.262l-6.806,0c-5.416,0 -9.368,-1.208 -11.856,-3.624c-2.488,-2.416 -3.732,-5.85 -3.732,-10.301c0,-2.334 0.317,-4.71 0.951,-7.126c0.634,-2.416 1.561,-4.615 2.781,-6.596c1.22,-1.982 2.732,-3.597 4.537,-4.845c1.805,-1.249 3.879,-1.873 6.221,-1.873l33.08,0l-7.245,11.401l-20.053,0c-0.927,0 -1.793,0.163 -2.598,0.489c-0.805,0.326 -1.512,0.774 -2.122,1.344c-0.61,0.57 -1.11,1.222 -1.5,1.954c-0.39,0.733 -0.634,1.479 -0.732,2.239c-0.244,1.954 0.366,3.366 1.83,4.235c1.464,0.869 3.659,1.303 6.587,1.303l2.122,0Z" style="fill:#fff900;"/></g></svg>